<?xml version="1.0" encoding="UTF-8" standalone="no"?>
<svg width="48px" height="48px" viewBox="0 0 48 48" version="1.1" xmlns="http://www.w3.org/2000/svg" xmlns:xlink="http://www.w3.org/1999/xlink" xmlns:sketch="http://www.bohemiancoding.com/sketch/ns">
    <!-- Generator: Sketch 3.4.4 (17249) - http://www.bohemiancoding.com/sketch -->
    <title>Facebook-black</title>
    <desc>Created with Sketch.</desc>
    <defs></defs>
    <g id="Icons" stroke="none" stroke-width="1" fill="none" fill-rule="evenodd" sketch:type="MSPage">
        <g id="Black" sketch:type="MSArtboardGroup" transform="translate(-200.000000, -200.000000)" fill="#0B0B0A">
            <g id="Line-1" sketch:type="MSLayerGroup" transform="translate(200.000000, 200.000000)">
                <path d="M25.6383553,48 L2.64923152,48 C1.18567266,48 0,46.8135915 0,45.3506028 L0,2.64921096 C0,1.1858497 1.18585891,0 2.64923152,0 L45.3509547,0 C46.8139548,0 48,1.1858497 48,2.64921096 L48,45.3506028 C48,46.8137778 46.8137686,48 45.3509547,48 L33.1193053,48 L33.1193053,29.4117547 L39.3585212,29.4117547 L40.2927552,22.1675856 L33.1193053,22.1675856 L33.1193053,17.5426414 C33.1193053,15.4452873 33.7017116,14.0160097 36.7092896,14.0160097 L40.5453113,14.0143334 L40.5453113,7.53509054 C39.8818859,7.44680835 37.6047835,7.24957027 34.955552,7.24957027 C29.4248342,7.24957027 25.6383553,10.6255263 25.6383553,16.8252089 L25.6383553,22.1675856 L19.3831218,22.1675856 L19.3831218,29.4117547 L25.6383553,29.4117547 L25.6383553,48 L25.6383553,48 Z" id="Facebook" sketch:type="MSShapeGroup"></path>
            </g>
        </g>
    </g>
</svg>