<?xml version="1.0" encoding="UTF-8" standalone="no"?>
<svg width="66px" height="42px" viewBox="0 0 66 42" version="1.1" xmlns="http://www.w3.org/2000/svg" xmlns:xlink="http://www.w3.org/1999/xlink" xmlns:sketch="http://www.bohemiancoding.com/sketch/ns">
    <!-- Generator: Sketch 3.4.4 (17249) - http://www.bohemiancoding.com/sketch -->
    <title>GooglePlus-black</title>
    <desc>Created with Sketch.</desc>
    <defs></defs>
    <g id="Icons" stroke="none" stroke-width="1" fill="none" fill-rule="evenodd" sketch:type="MSPage">
        <g id="Black" sketch:type="MSArtboardGroup" transform="translate(-391.000000, -203.000000)" fill="#0B0B0A">
            <g id="Line-1" sketch:type="MSLayerGroup" transform="translate(200.000000, 200.000000)">
                <path d="M249.735849,20.2574257 L249.735849,12.980198 L244.54717,12.980198 L244.54717,20.2574257 L237.075472,20.2574257 L237.075472,25.4554455 L244.54717,25.4554455 L244.54717,32.9405941 L249.735849,32.9405941 L249.735849,25.4554455 L257,25.4554455 L257,20.2574257 L249.735849,20.2574257 L249.735849,20.2574257 Z M211.962264,19.8415842 L211.962264,28.1584158 C211.962264,28.1584158 220.015925,28.147604 223.29517,28.147604 C221.519396,33.539198 218.758189,36.4752475 211.962264,36.4752475 C205.084774,36.4752475 199.716981,30.8898713 199.716981,24 C199.716981,17.1101287 205.084774,11.5247525 211.962264,11.5247525 C215.598491,11.5247525 217.946887,12.8051287 220.101019,14.5897129 C221.825321,12.8623069 221.681283,12.6161287 226.068208,8.46582178 C222.344189,5.07005941 217.394604,3 211.962264,3 C200.385075,3 191,12.4019703 191,24 C191,35.5978218 200.385075,45 211.962264,45 C229.266925,45 233.496528,29.9049505 232.09434,19.8415842 L211.962264,19.8415842 L211.962264,19.8415842 Z" id="GooglePlus" sketch:type="MSShapeGroup"></path>
            </g>
        </g>
    </g>
</svg>