<?xml version="1.0" encoding="UTF-8" standalone="no"?>
<svg width="48px" height="40px" viewBox="0 0 48 40" version="1.1" xmlns="http://www.w3.org/2000/svg" xmlns:xlink="http://www.w3.org/1999/xlink" xmlns:sketch="http://www.bohemiancoding.com/sketch/ns">
    <!-- Generator: Sketch 3.4.4 (17249) - http://www.bohemiancoding.com/sketch -->
    <title>Twitter-black</title>
    <desc>Created with Sketch.</desc>
    <defs></defs>
    <g id="Icons" stroke="none" stroke-width="1" fill="none" fill-rule="evenodd" sketch:type="MSPage">
        <g id="Black" sketch:type="MSArtboardGroup" transform="translate(-300.000000, -204.000000)" fill="#0B0B0A">
            <g id="Line-1" sketch:type="MSLayerGroup" transform="translate(200.000000, 200.000000)">
                <path d="M148,8.7352835 C146.236309,9.53846154 144.337383,10.0816179 142.345483,10.3243048 C144.379644,9.07620079 145.940482,7.09714698 146.675823,4.73961719 C144.771263,5.89526905 142.666667,6.73600578 140.418384,7.18671 C138.626519,5.22499097 136.065504,4 133.231203,4 C127.796443,4 123.387216,8.5214879 123.387216,14.0975081 C123.387216,14.8891296 123.471738,15.6576381 123.640782,16.3972553 C115.456242,15.9754424 108.201444,11.9595522 103.341433,5.84326472 C102.493397,7.33983388 102.008804,9.07620079 102.008804,10.9252438 C102.008804,14.4268689 103.747139,17.5182376 106.389857,19.3297219 C104.778306,19.2806067 103.256911,18.8212351 101.9271,18.0700614 L101.9271,18.194294 C101.9271,23.0884796 105.322064,27.1708198 109.8299,28.0953413 C109.004402,28.3322499 108.133826,28.4507042 107.235077,28.4507042 C106.601162,28.4507042 105.981335,28.3900325 105.381229,28.2715782 C106.634971,32.2816901 110.269414,35.2026002 114.580032,35.2806067 C111.210424,37.9906103 106.961789,39.6056338 102.349709,39.6056338 C101.555203,39.6056338 100.769149,39.5594077 100,39.4669556 C104.358514,42.3271939 109.53689,44 115.095615,44 C133.211481,44 143.114633,28.6153846 143.114633,15.2704948 C143.114633,14.8313471 143.106181,14.3921993 143.089276,13.961719 C145.013559,12.5373781 146.684275,10.7605634 148,8.7352835" id="Twitter" sketch:type="MSShapeGroup"></path>
            </g>
        </g>
    </g>
</svg>